<svg xmlns="http://www.w3.org/2000/svg" viewBox="0 0 21.97 36.43"><defs><style>.cls-1{fill:#5d4037;}</style></defs><g id="Layer_2" data-name="Layer 2"><g id="Layer_1-2" data-name="Layer 1"><path class="cls-1" d="M20.66,36.43c-1,0-1.31-1-1.48-1.4C14,19.44,8,21.58,2.63,35.33c-6.07,5.45.27-12.45.27-14.64.58-2.27,3.28-1.72,2.84.66L5,24.83c3.45-4.83,9-5.58,12.41-.12-.33-.43-.64-6.86-1.73-6.29H5.71c-2,0-2.41-.36-2.75-2.26L.49,2.46a5.23,5.23,0,0,1-.11-.78,1.42,1.42,0,1,1,2.81-.47c.93,4.54,1.7,9.14,2.51,13.7.92,1.28,3.82.19,5.36.53,2,.42,8-1.36,8,2C18.89,20.73,24.42,36.42,20.66,36.43Z"/><path class="cls-1" d="M20.66,36.31c-.87,0-1.19-.86-1.36-1.33-5.22-15.69-11.43-13.58-16.79.3-5.69,5.13.55-12.47.51-14.57.53-2.15,3.06-1.52,2.6.62l-.87,3.93c3.55-5.19,9.4-5.94,12.84-.06-.38-.52-.64-7.48-1.94-6.91H5.71c-1.91,0-2.3-.32-2.63-2.15C3.38,14.86-1.21-.1,1.56.18c2-.23,1.65,2.69,2.1,4C4.3,7.75,5,11.36,5.58,14.93c.87,1.47,3.9.26,5.48.63C13,16,19,14.23,19,17.48S24.16,36.29,20.66,36.31Z"/><path class="cls-1" d="M4.11,26.45c4.56-6.3,9.86-6.88,14.09,0-1.55-12.16-1.92-7.83-12.49-8.56C2.08,19,2.08,4.65.87,1.65,3.36-3.64,4.47,13.34,5.21,15c1.86,2.28,8.3.33,11.39.95,3.48-.76,3.64,15.15,5,18.34.65,1.62-1.62,2.36-1.95.57C14.37,19,7.77,20.62,2.17,35.13-2.3,39.41,3.48,22.51,3.39,20.8c.15-.67.51-1.17,1.27-.95C6.33,21.26,4.09,24.46,4.11,26.45Z"/></g></g></svg>