<svg xmlns="http://www.w3.org/2000/svg" viewBox="0 0 31.39 31.64"><g id="Layer_2" data-name="Layer 2"><g id="Layer_1-2" data-name="Layer 1"><path d="M18.7,4.74c3.24,0,6.47,0,9.71,0a2.92,2.92,0,0,1,2.73,1.76,2.75,2.75,0,0,1,.19,1.72c-.53,2.94-1.06,5.89-1.6,8.83a3.13,3.13,0,0,1-3,2.43l-8.15.62-5.81.43c-.81.06-1.62.12-2.43.2a1.05,1.05,0,0,1-1.21-.94,1.09,1.09,0,0,1,1-1.07l7.59-.57,7.36-.56,1.71-.15a1.12,1.12,0,0,0,1.09-1l1.5-8.33a1.16,1.16,0,0,0-1-1.38,4.49,4.49,0,0,0-.64,0H8.93c-.7,0-1.13-.36-1.14-1a1,1,0,0,1,.89-1,3.62,3.62,0,0,1,.47,0H18.7Z"/><path d="M18.38,25.65c-3.52,0-7,0-10.55,0a3.9,3.9,0,0,1-3.66-2.83A8.84,8.84,0,0,1,4,21.11c-.13-2-.23-3.93-.35-5.9-.14-2.34-.3-4.67-.45-7-.09-1.48-.19-3-.25-4.46A1.09,1.09,0,0,0,2.2,2.63,14.68,14.68,0,0,1,.54,1.86,1,1,0,0,1,.5.16,1,1,0,0,1,1.42.08a14.74,14.74,0,0,1,2.19,1A2.92,2.92,0,0,1,5,3.58c.13,2.3.27,4.59.42,6.89.18,2.87.37,5.73.56,8.6.06.93.11,1.86.21,2.79a1.81,1.81,0,0,0,1.92,1.73H28.88a1.19,1.19,0,0,1,1,.4A1,1,0,0,1,30.07,25a.92.92,0,0,1-.87.6c-.57,0-1.14,0-1.71,0Z"/><path d="M7.51,31.64a2.2,2.2,0,0,1-2.27-2.26,2.23,2.23,0,0,1,2.24-2.26,2.27,2.27,0,0,1,2.29,2.27A2.24,2.24,0,0,1,7.51,31.64Z"/><path d="M25.39,31.64a2.21,2.21,0,0,1-2.25-2.25,2.27,2.27,0,1,1,2.25,2.25Z"/></g></g></svg>