<svg xmlns="http://www.w3.org/2000/svg" viewBox="0 0 38.19 13.18"><defs><style>.cls-1{fill:#3e3e3e;}</style></defs><g id="Layer_2" data-name="Layer 2"><g id="Layer_1-2" data-name="Layer 1"><path class="cls-1" d="M34.61,5.52c0-.18-.18-.25-.28-.36L31,1.86A1.11,1.11,0,0,1,30.61,1,1,1,0,0,1,31.2.1a.89.89,0,0,1,1,.15c.64.61,1.26,1.23,1.89,1.85l3.48,3.49.26.28a1,1,0,0,1,0,1.4c-.52.58-1.07,1.12-1.62,1.67L32.52,12.7a1.15,1.15,0,0,1-1,.47,1,1,0,0,1-.6-1.76L34.34,8c.1-.1.23-.18.27-.35a1.15,1.15,0,0,0-.52,0H1.42a4.22,4.22,0,0,1-.62,0,1,1,0,0,1-.8-1,1,1,0,0,1,.79-1,3.2,3.2,0,0,1,.69,0H34A1.15,1.15,0,0,0,34.61,5.52Z"/></g></g></svg>