<svg xmlns="http://www.w3.org/2000/svg" viewBox="0 0 77.74 77.74"><defs><style>.cls-1{fill:#3e3e3e;}</style></defs><g id="Layer_2" data-name="Layer 2"><g id="Layer_1-2" data-name="Layer 1"><path class="cls-1" d="M0,39A38.87,38.87,0,1,1,38.86,77.74,38.64,38.64,0,0,1,0,39ZM31.35,53.08v5.78c0,4.85.45,5.26,5.22,5.14,1.85,0,2.84-.71,2.79-2.75-.09-3.85,0-7.7,0-11.56,0-7.13,0-7.13,7-7.44,2.73-.12,3.44-1.37,3.52-5.36,0-2.67-1.63-2.59-3.45-2.62-7.77-.12-7.79-.16-7-7.93a4.57,4.57,0,0,1,3.88-4.41,19.86,19.86,0,0,1,4-.32c1.81,0,2.69-.75,2.62-2.59,0-1.16,0-2.31,0-3.47s-.54-1.89-1.72-1.88c-3,0-6-.37-8.92.38a10,10,0,0,0-7.79,9.56c-.09,2,0,4,0,6.07,0,4.45,0,4.44-4.41,4.61-1.12.05-2.36-.21-2.94,1.24-1.52,3.84.24,6.72,4.33,6.69,2.27,0,3.12.86,3,3.07C31.28,47.88,31.35,50.48,31.35,53.08Z"/></g></g></svg>