<svg xmlns="http://www.w3.org/2000/svg" viewBox="0 0 77.74 77.74"><defs><style>.cls-1{fill:#3e3e3e;}</style></defs><g id="Layer_2" data-name="Layer 2"><g id="Layer_1-2" data-name="Layer 1"><path class="cls-1" d="M0,38.79A38.87,38.87,0,1,1,38.79,77.74,38.78,38.78,0,0,1,0,38.79ZM42.44,14.54C24.19,14.54,13,29.12,17.55,43.61A18.49,18.49,0,0,1,17.7,54.5c-.25.93-.45,1.87-.63,2.82-.55,2.89-.42,3,2.53,2.35,4.74-1.05,9.21-1.89,14.32-.34,8.84,2.67,16.85,0,22.86-7.13,6.32-7.43,7.5-16,3.27-24.79C56,19,49,14.67,42.44,14.54Z"/><path class="cls-1" d="M58.11,35.88C58.05,50,45.66,59,33.74,55c-3.21-1.1-6.15-1.89-9.43-.58-1.83.73-2.68-.1-1.92-2,1.28-3.14.67-5.94-.45-9.09-2.68-7.51-.8-14.27,4.92-19.79A18.26,18.26,0,0,1,47,20.32C54.19,23.75,57.84,29.59,58.11,35.88ZM44.93,48.08a5,5,0,0,0,4.78-2.25c.45-.67.88-1.6.11-2.07C48.05,42.69,46,41.1,44,42.48c-2.31,1.64-3.74.65-5.29-.74S36,39.07,34.69,37.65s-1.9-2.68-.53-4.57,0-4-.88-5.91a1.22,1.22,0,0,0-1.78-.38,5.16,5.16,0,0,0-2.89,4.64,2.8,2.8,0,0,0,0,.29C28.64,39,37.41,47.91,44.93,48.08Z"/></g></g></svg>