<svg xmlns="http://www.w3.org/2000/svg" viewBox="0 0 77.74 77.74"><defs><style>.cls-1{fill:#3e3e3e;}</style></defs><g id="Layer_2" data-name="Layer 2"><g id="Layer_1-2" data-name="Layer 1"><path class="cls-1" d="M0,38.91A38.87,38.87,0,1,1,39,77.74,38.69,38.69,0,0,1,0,38.91ZM38.73,18.82c-3.37,0-6.74-.06-10.11,0-5.67.11-9.69,4-9.78,9.64q-.16,10.39,0,20.79c.06,5.06,3.63,9.3,8.66,9.51,7.49.32,15,.33,22.51-.09,5.48-.3,8.73-4.11,8.85-9.58.15-6.83.17-13.67,0-20.5-.15-5.86-4.16-9.63-10-9.76C45.47,18.76,42.1,18.83,38.73,18.82Z"/><path class="cls-1" d="M55.81,39.19c0,3,0,6,0,8.94-.08,4.75-2.82,7.6-7.51,7.67q-9.52.12-19,0c-4.07,0-7-2.36-7.31-6.33A113.77,113.77,0,0,1,22,27.87,6.54,6.54,0,0,1,28.77,22q9.94-.15,19.9,0c4.21.06,7,2.89,7.11,7.13C55.88,32.45,55.8,35.82,55.81,39.19ZM38.66,28.64A10.22,10.22,0,0,0,39,49.07a10.48,10.48,0,0,0,10.1-10.25A10.32,10.32,0,0,0,38.66,28.64Z"/><path class="cls-1" d="M46,38.74a7.16,7.16,0,1,1-14.32.08,7.18,7.18,0,0,1,7.14-7.16A7.1,7.1,0,0,1,46,38.74Z"/></g></g></svg>