<svg xmlns="http://www.w3.org/2000/svg" viewBox="0 0 77.74 77.74"><defs><style>.cls-1{fill:#3e3e3e;}</style></defs><g id="Layer_2" data-name="Layer 2"><g id="Layer_1-2" data-name="Layer 1"><path class="cls-1" d="M38.59,77.74A38.65,38.65,0,0,1,0,38.86,38.63,38.63,0,0,1,39.2,0C60.56.07,77.85,17.71,77.74,39.32,77.63,60.55,60,77.81,38.59,77.74ZM32.78,44.17c0,2.79,0,5.58,0,8.38,0,3.51.59,3.88,4.3,4.05,2.94.13,3.66-1.26,3.53-3.86-.13-2.78-.07-5.58,0-8.38.06-3.22,1.9-5.32,4.51-5.26s4.23,2,4.29,5.15.05,6.36,0,9.53c0,2.66,1.74,2.83,3.73,2.78s4.08.27,4.08-2.69c0-4.62.22-9.26-.11-13.86-.53-7.47-7.8-11-14.14-7-1,.65-1.6,1.18-2.82-.1-1.6-1.68-4-1-6-.56-1.82.44-1.35,2.32-1.37,3.71C32.75,38.77,32.78,41.47,32.78,44.17Zm-11.61.15c0,3.17,0,6.34,0,9.51,0,1.8.55,2.77,2.51,2.5a11.06,11.06,0,0,1,2.3-.06c2.21.18,3.11-.71,3.07-3C28.94,47.13,29,41,29,34.83c0-1.92-.58-2.93-2.64-2.76a14,14,0,0,1-2.59,0c-2.05-.18-2.71.78-2.65,2.73C21.24,38,21.17,41.14,21.17,44.32Zm8.47-20.67a4.43,4.43,0,0,0-4.34-4.77,4.82,4.82,0,0,0-4.77,4.45,4.68,4.68,0,0,0,4.58,4.91A4.44,4.44,0,0,0,29.64,23.65Z"/></g></g></svg>