<svg xmlns="http://www.w3.org/2000/svg" viewBox="0 0 78 77.73"><defs><style>.cls-1{fill:#3e3e3e;}</style></defs><g id="Layer_2" data-name="Layer 2"><g id="Layer_1-2" data-name="Layer 1"><path class="cls-1" d="M39.15,0C60.29.05,77.85,17.32,78,38.23A39,39,0,1,1,39.15,0ZM56.67,30.88a14.93,14.93,0,0,0-1.44-6.47C52,17.29,45,14.19,36.08,15.85,28.16,17.31,21.9,24.07,21.44,31.6c-.22,3.5.26,6.75,3,9.25.63.56,1.33,1.33,2.26,1s.84-1.43,1.07-2.25a2.78,2.78,0,0,0-.62-2.42c-2-3-1.67-6-.33-9.09,2-4.68,7.63-7.92,12.94-7.61s9.32,3.25,10.79,7.75c1.6,4.87-.42,12-4.28,15-1.88,1.46-4,2.05-6.16.7-2-1.24-2.22-3.25-1.77-5.36.55-2.54,1.16-5.07,1.76-7.6.46-1.91.08-3.53-1.83-4.33s-3.35.17-4.48,1.66a5.18,5.18,0,0,0-1.31,4.31c1.16,4.57-.61,8.71-1.55,13-1,4.59-2.45,9.13-1.87,13.94.08.66,0,1.49.79,1.72s1.16-.55,1.53-1.08a28.67,28.67,0,0,0,4.18-10.68c.44-2,1-2.61,3.08-1.5,4.17,2.27,8,1.26,11.44-1.74C54.46,42.41,56.64,37.53,56.67,30.88Z"/></g></g></svg>